<?xml version="1.0" standalone="no"?>
<!DOCTYPE svg PUBLIC "-//W3C//DTD SVG 20010904//EN"
 "http://www.w3.org/TR/2001/REC-SVG-20010904/DTD/svg10.dtd">
<svg version="1.0" xmlns="http://www.w3.org/2000/svg"
 width="277.000000pt" height="277.000000pt" viewBox="0 0 277.000000 277.000000"
 preserveAspectRatio="xMidYMid meet">
<metadata>
Created by potrace 1.14, written by Peter Selinger 2001-2017
</metadata>
<g transform="translate(0.000000,277.000000) scale(0.100000,-0.100000)"
fill="#000000" stroke="none">
<path d="M1430 1374 l0 -1286 33 19 c17 11 168 98 335 194 167 96 322 185 346
199 24 14 125 72 224 129 l182 104 0 643 0 644 -22 13 c-13 8 -199 116 -414
240 -216 124 -407 235 -425 246 -19 12 -41 24 -49 28 -8 3 -56 30 -107 60 -50
29 -94 53 -97 53 -3 0 -6 -579 -6 -1286z m298 844 c21 -13 47 -28 57 -35 11
-7 47 -27 80 -46 79 -45 128 -73 168 -96 17 -10 86 -50 152 -88 l120 -69 2
-505 2 -506 -34 -19 c-19 -10 -92 -53 -162 -94 -70 -41 -148 -86 -173 -99 -25
-13 -62 -35 -82 -48 -21 -12 -42 -23 -48 -23 -5 0 -10 -4 -10 -10 0 -5 -5 -10
-10 -10 -6 0 -27 -10 -48 -23 -20 -13 -45 -26 -54 -30 -16 -5 -17 51 -15 859
1 475 5 864 9 864 5 0 25 -10 46 -22z"/>
<path d="M350 2090 l-115 -67 -3 -646 -2 -646 145 -83 c80 -46 160 -91 178
-102 18 -10 88 -51 157 -91 69 -40 141 -82 160 -93 19 -10 130 -74 246 -141
116 -66 215 -121 221 -121 6 0 9 143 9 382 -1 248 -5 383 -11 383 -5 0 -60
-29 -121 -64 l-110 -64 1 -114 c0 -62 -1 -113 -3 -113 -1 0 -110 61 -240 137
-130 75 -272 156 -314 180 l-78 44 -2 642 -3 643 -115 -66z"/>
</g>
</svg>
